<svg xmlns="http://www.w3.org/2000/svg" width="32" height="32" viewBox="0 0 32 32">
  <rect width="32" height="32" fill="none"/>
  <ellipse cx="16" cy="23" rx="10" ry="4" fill="#2a1f18" opacity="0.35"/>
  <ellipse cx="16" cy="16" rx="10" ry="6" fill="#5a4636"/>
  <ellipse cx="24" cy="15" rx="4" ry="3.5" fill="#5a4636"/>
  <ellipse cx="26" cy="16" rx="2" ry="1.4" fill="#3b2c24"/>
  <circle cx="25" cy="16" r="0.7" fill="#f2f2f2"/>
  <circle cx="27" cy="16" r="0.7" fill="#f2f2f2"/>
  <circle cx="23.5" cy="13.5" r="0.8" fill="#f2f2f2"/>
  <path d="M10 11l4 2-5 1z" fill="#3d2f25"/>
  <path d="M8 14c-2 1-2 3 0 4" fill="none" stroke="#3d2f25" stroke-width="1" stroke-linecap="round"/>
  <path d="M12 10c3-2 9-2 12 0" fill="none" stroke="#3d2f25" stroke-width="1" stroke-linecap="round"/>
  <rect x="9" y="20" width="3" height="6" rx="1" fill="#3d2f25"/>
  <rect x="14" y="20" width="3" height="6" rx="1" fill="#3d2f25"/>
  <rect x="19" y="20" width="3" height="6" rx="1" fill="#3d2f25"/>
  <rect x="23" y="20" width="3" height="6" rx="1" fill="#3d2f25"/>
</svg>
