<svg xmlns="http://www.w3.org/2000/svg" width="32" height="32" viewBox="0 0 32 32">
  <rect width="32" height="32" fill="none"/>
  <ellipse cx="16" cy="23" rx="10" ry="4" fill="#2a1f18" opacity="0.35"/>
  <ellipse cx="15" cy="17" rx="11" ry="7" fill="#5b4332"/>
  <ellipse cx="24" cy="16" rx="4.5" ry="4" fill="#5b4332"/>
  <ellipse cx="27.5" cy="16" rx="2.5" ry="2" fill="#3b2c24"/>
  <circle cx="26.8" cy="16" r="0.6" fill="#f2f2f2"/>
  <circle cx="28.2" cy="16" r="0.6" fill="#f2f2f2"/>
  <circle cx="23" cy="14" r="0.9" fill="#f2f2f2"/>
  <path d="M25 18l2 1-2 1" fill="none" stroke="#f2f2f2" stroke-width="0.8" stroke-linecap="round"/>
  <path d="M26 18.5l2 0.8-2 1.2" fill="none" stroke="#f2f2f2" stroke-width="0.8" stroke-linecap="round"/>
  <path d="M9 12l3 2-4 1z" fill="#3a2b22"/>
  <path d="M13 10l3 2-4 1z" fill="#3a2b22"/>
  <path d="M17 10l3 2-4 1z" fill="#3a2b22"/>
  <path d="M8 15c-1.5 1-2 2.5-1 4" fill="none" stroke="#3a2b22" stroke-width="1" stroke-linecap="round"/>
  <rect x="8" y="20" width="3" height="6" rx="1" fill="#3a2b22"/>
  <rect x="13" y="21" width="3" height="6" rx="1" fill="#3a2b22"/>
  <rect x="18" y="21" width="3" height="6" rx="1" fill="#3a2b22"/>
  <rect x="22" y="20" width="3" height="6" rx="1" fill="#3a2b22"/>
  <path d="M6 16c-1 1-1 2 0 3" fill="none" stroke="#2d211a" stroke-width="1" stroke-linecap="round"/>
</svg>
