<svg xmlns="http://www.w3.org/2000/svg" width="44" height="64" viewBox="0 0 44 64">
  <rect width="44" height="64" fill="none"/>
  <ellipse cx="22" cy="54" rx="8" ry="3.5" fill="#2a5437" opacity="0.25"/>
  <rect x="20" y="26" width="4" height="28" rx="1.5" fill="#b47c4b"/>
  <path d="M22 26c-6-2-11-2-14 0 5 1 8 2 11 4" fill="none" stroke="#3aa364" stroke-width="3" stroke-linecap="round"/>
  <path d="M22 26c6-2 11-2 14 0-5 1-8 2-11 4" fill="none" stroke="#3aa364" stroke-width="3" stroke-linecap="round"/>
  <path d="M22 26c-4-3-9-4-12-3 4 1 7 2 10 5" fill="none" stroke="#2e8c53" stroke-width="2.5" stroke-linecap="round"/>
  <path d="M22 26c4-3 9-4 12-3-4 1-7 2-10 5" fill="none" stroke="#2e8c53" stroke-width="2.5" stroke-linecap="round"/>
</svg>
